#!OML:ASF X:\für Bonn\!DataBase\2005_08_12_Daniel\c3d\Daniel.ASF
:FULLY-SPECIFIED
:DEGREES
509
root 19.1991 1.20261 0.606484 -1703.94 261.024 148.544
lowerback 28.2675 -2.9933 0.419794
upperback 5.85685 -4.53245 -2.23075
thorax -9.24524 -2.43372 -1.0964
lowerneck -13.9589 2.20608 -3.75259
upperneck 6.4103 3.61165 -0.310156
head 4.11356 1.63591 0.771344
rclavicle 8.11041e-014 -1.4984e-013
rhumerus -405.632 -8.92366 292.558
rradius 13.0414
rwrist 65.2233
rhand -8.5565 738.25
rfingers 7.12502
rthumb 17.3733 709.007
lclavicle 8.11041e-014 -1.4984e-013
lhumerus -590.502 153.067 -489.255
lradius 17.0741
lwrist -54.6524
lhand -4.29025 -726.04
lfingers 7.12502
lthumb 21.4752 22.7892
rfemur -508.948 -165.182 539.089
rtibia 14.7732
rfoot -45.5557 -11.2352
rtoes 38.7938
lfemur 15.7901 715.396 -18.8959
ltibia 40.7134
lfoot 138.095 552.224
ltoes 25.842
510
root 19.2014 1.2039 0.60601 -1703.89 261.031 148.504
lowerback 28.2683 -3.00089 0.41407
upperback 5.84588 -4.54238 -2.21553
thorax -9.25665 -2.43784 -1.0722
lowerneck -13.9846 2.21266 -3.77205
upperneck 6.44026 3.62679 -0.323622
head 4.12661 1.64122 0.772028
rclavicle 3.4191e-014 -5.17803e-014
rhumerus -405.617 -8.97875 292.652
rradius 13.0072
rwrist 65.297
rhand -8.57697 738.297
rfingers 7.12502
rthumb 17.3536 709.051
lclavicle 3.4191e-014 -5.17803e-014
lhumerus -590.571 153.005 -489.305
lradius 17.0988
lwrist -54.6646
lhand -4.27876 -726.073
lfingers 7.12502
lthumb 21.4862 22.7552
rfemur -508.984 -165.447 539.338
rtibia 14.6967
rfoot -45.5215 -11.2634
rtoes 39.1974
lfemur 15.8201 715.215 -19.0421
ltibia 40.5978
lfoot 137.985 552.309
ltoes 25.646
511
root 19.2025 1.20508 0.605906 -1703.87 261.044 148.502
lowerback 28.2612 -3.01077 0.420533
upperback 5.83212 -4.55209 -2.20703
thorax -9.26876 -2.44207 -1.06286
lowerneck -14.0129 2.21374 -3.77731
upperneck 6.46751 3.63164 -0.330633
head 4.13953 1.64239 0.771718
rclavicle 7.4743e-014 -9.4783e-014
rhumerus -405.601 -9.13682 292.821
rradius 12.9515
rwrist 65.5517
rhand -8.61349 738.377
rfingers 7.12502
rthumb 17.3185 709.129
lclavicle 7.4743e-014 -9.4783e-014
lhumerus -590.599 153.01 -489.317
lradius 17.1046
lwrist -54.6245
lhand -4.24135 -726.1
lfingers 7.12502
lthumb 21.5222 22.7246
rfemur -509.026 -165.612 539.51
rtibia 14.6406
rfoot -45.3538 -11.2822
rtoes 39.3458
lfemur 15.8452 715.074 -19.1629
ltibia 40.4966
lfoot 137.865 552.369
ltoes 25.532
512
root 19.2032 1.207 0.604564 -1703.92 261.042 148.574
lowerback 28.2231 -3.00888 0.396099
upperback 5.84568 -4.55638 -2.20109
thorax -9.23226 -2.44416 -1.04291
lowerneck -14.1008 2.21749 -3.79281
upperneck 6.51909 3.64339 -0.321927
head 4.16888 1.64687 0.779433
rclavicle 9.54166e-015 -3.57207e-014
rhumerus -405.549 -9.24053 292.916
rradius 12.9164
rwrist 65.6911
rhand -8.60588 738.382
rfingers 7.12502
rthumb 17.3258 709.134
lclavicle 9.54166e-015 -3.57207e-014
lhumerus -590.605 152.935 -489.357
lradius 17.1101
lwrist -54.6271
lhand -4.17673 -726.131
lfingers 7.12502
lthumb 21.5842 22.6864
rfemur -509.087 -165.773 539.658
rtibia 14.6296
rfoot -45.0383 -11.439
rtoes 39.1073
lfemur 15.8853 714.959 -19.2953
ltibia 40.3974
lfoot 137.714 552.4
ltoes 25.4364
513
root 19.2029 1.20789 0.604191 -1703.82 261.057 148.457
lowerback 28.2433 -3.02529 0.408626
upperback 5.84636 -4.57425 -2.19255
thorax -9.24223 -2.45318 -1.03315
lowerneck -14.1305 2.21913 -3.79627
upperneck 6.51859 3.64781 -0.328835
head 4.17348 1.64823 0.778562
rclavicle 4.85035e-014 -5.86306e-014
rhumerus -405.529 -9.32719 293.014
rradius 12.8851
rwrist 65.8252
rhand -8.62655 738.396
rfingers 7.12502
rthumb 17.3059 709.147
lclavicle 4.85035e-014 -5.86306e-014
lhumerus -590.661 152.841 -489.462
lradius 17.1065
lwrist -54.6669
lhand -4.13599 -726.148
lfingers 7.12502
lthumb 21.6234 22.6646
rfemur -509.13 -165.961 539.85
rtibia 14.6444
rfoot -44.8262 -11.4463
rtoes 38.729
lfemur 15.9576 714.786 -19.4354
ltibia 40.3129
lfoot 137.462 552.4
ltoes 25.3903
514
root 19.2027 1.20902 0.60363 -1703.8 261.049 148.436
lowerback 28.2487 -3.03288 0.398871
upperback 5.83966 -4.58739 -2.19462
thorax -9.25238 -2.45909 -1.02471
lowerneck -14.1759 2.22385 -3.79085
upperneck 6.57115 3.65775 -0.343182
head 4.19723 1.65122 0.775175
rclavicle 5.725e-014 -6.06604e-015
rhumerus -405.52 -9.5244 293.206
rradius 12.8221
rwrist 66.1017
rhand -8.6487 738.396
rfingers 7.12502
rthumb 17.2846 709.144
lclavicle 5.725e-014 -6.06604e-015
lhumerus -590.681 152.84 -489.483
lradius 17.1072
lwrist -54.6194
lhand -4.11397 -726.17
lfingers 7.12502
lthumb 21.6445 22.6403
rfemur -509.194 -166.076 539.948
rtibia 14.6906
rfoot -44.4965 -11.6208
rtoes 38.2751
lfemur 16.0247 714.663 -19.5807
ltibia 40.2311
lfoot 137.201 552.352
ltoes 25.5009
515
root 19.2022 1.20999 0.603293 -1703.7 261.062 148.354
lowerback 28.2198 -3.04704 0.405814
upperback 5.8445 -4.60289 -2.18367
thorax -9.23253 -2.46693 -1.01244
lowerneck -14.2387 2.22046 -3.82557
upperneck 6.59946 3.66009 -0.315245
head 4.2148 1.65233 0.790613
rclavicle 4.77083e-014 -3.29672e-014
rhumerus -405.491 -9.59886 293.295
rradius 12.8011
rwrist 66.2186
rhand -8.66761 738.411
rfingers 7.12502
rthumb 17.2664 709.158
lclavicle 4.77083e-014 -3.29672e-014
lhumerus -590.69 152.801 -489.507
lradius 17.1078
lwrist -54.6181
lhand -4.09508 -726.182
lfingers 7.12502
lthumb 21.6627 22.626
rfemur -509.277 -166.234 540.121
rtibia 14.7413
rfoot -44.2562 -11.6437
rtoes 37.947
lfemur 16.0558 714.657 -19.6083
ltibia 40.1646
lfoot 137.045 552.303
ltoes 25.5724
516
root 19.2 1.21075 0.602616 -1703.57 261.046 148.221
lowerback 28.197 -3.05902 0.387708
upperback 5.86057 -4.62465 -2.18283
thorax -9.20223 -2.47781 -0.994925
lowerneck -14.3099 2.21595 -3.8649
upperneck 6.61496 3.66156 -0.286004
head 4.22966 1.65307 0.8071
rclavicle 8.74653e-015 -2.50407e-014
rhumerus -405.431 -9.58057 293.292
rradius 12.7797
rwrist 66.1921
rhand -8.66278 738.359
rfingers 7.12502
rthumb 17.271 709.106
lclavicle 8.74653e-015 -2.50407e-014
lhumerus -590.691 152.754 -489.527
lradius 17.1098
lwrist -54.6008
lhand -4.08011 -726.192
lfingers 7.12502
lthumb 21.677 22.6147
rfemur -509.36 -166.401 540.265
rtibia 14.8336
rfoot -44.0827 -11.5818
rtoes 37.8671
lfemur 16.0969 714.723 -19.5961
ltibia 40.1039
lfoot 136.947 552.241
ltoes 25.7534
517
root 19.1986 1.21143 0.602357 -1703.41 261.058 148.052
lowerback 28.2122 -3.07966 0.408358
upperback 5.85456 -4.64572 -2.17918
thorax -9.21841 -2.48828 -0.994163
lowerneck -14.3352 2.21689 -3.86329
upperneck 6.64229 3.66449 -0.287625
head 4.24218 1.65387 0.807196
rclavicle 8.18993e-014 -9.23588e-014
rhumerus -405.416 -9.51248 293.259
rradius 12.7735
rwrist 66.1343
rhand -8.66619 738.318
rfingers 7.12502
rthumb 17.2677 709.065
lclavicle 8.18993e-014 -9.23588e-014
lhumerus -590.762 152.63 -489.665
lradius 17.1004
lwrist -54.7129
lhand -4.0488 -726.238
lfingers 7.12502
lthumb 21.7071 22.5652
rfemur -509.437 -166.538 540.414
rtibia 14.9403
rfoot -43.9091 -11.5952
rtoes 37.8119
lfemur 16.1361 714.892 -19.4791
ltibia 40.0535
lfoot 136.944 552.192
ltoes 25.9446
518
root 19.197 1.21288 0.601845 -1703.35 261.041 148.004
lowerback 28.1732 -3.08599 0.383732
upperback 5.86274 -4.66107 -2.1773
thorax -9.18823 -2.49552 -0.974678
lowerneck -14.3818 2.22058 -3.88356
upperneck 6.65643 3.67451 -0.280502
head 4.25331 1.65806 0.814127
rclavicle 3.10104e-014 -4.55636e-014
rhumerus -405.368 -9.51556 293.287
rradius 12.7444
rwrist 66.1747
rhand -8.65302 738.296
rfingers 7.12502
rthumb 17.2804 709.044
lclavicle 3.10104e-014 -4.55636e-014
lhumerus -590.779 152.571 -489.721
lradius 17.0938
lwrist -54.7153
lhand -3.99687 -726.263
lfingers 7.12502
lthumb 21.757 22.5338
rfemur -509.547 -166.665 540.518
rtibia 15.0652
rfoot -43.752 -11.6397
rtoes 37.7693
lfemur 16.1495 715.097 -19.3715
ltibia 40.0093
lfoot 136.92 552.173
ltoes 26.1196
519
root 19.1945 1.21292 0.601573 -1703.2 261.032 147.863
lowerback 28.1677 -3.10184 0.383793
upperback 5.86113 -4.68222 -2.17916
thorax -9.1881 -2.50576 -0.969445
lowerneck -14.4212 2.21817 -3.89451
upperneck 6.68966 3.67472 -0.26814
head 4.26947 1.65791 0.82059
rclavicle 3.57812e-014 -1.52971e-014
rhumerus -405.336 -9.43179 293.228
rradius 12.7357
rwrist 66.0244
rhand -8.63172 738.282
rfingers 7.12502
rthumb 17.3009 709.032
lclavicle 3.57812e-014 -1.52971e-014
lhumerus -590.804 152.539 -489.759
lradius 17.0968
lwrist -54.6993
lhand -3.98687 -726.268
lfingers 7.12502
lthumb 21.7666 22.5282
rfemur -509.657 -166.798 540.643
rtibia 15.2198
rfoot -43.664 -11.5861
rtoes 37.6523
lfemur 16.1672 715.36 -19.1966
ltibia 39.9713
lfoot 136.951 552.126
ltoes 26.2489
